<svg xmlns="http://www.w3.org/2000/svg" x="0px" y="0px"
width="50" height="50"
viewBox="0 0 172 172"
style=" fill:#000000;"><g fill="none" fill-rule="nonzero" stroke="none" stroke-width="1" stroke-linecap="butt" stroke-linejoin="miter" stroke-miterlimit="10" stroke-dasharray="" stroke-dashoffset="0" font-family="none" font-weight="none" font-size="none" text-anchor="none" style="mix-blend-mode: normal"><path d="M0,172v-172h172v172z" fill="none"></path><g fill="#9b59b6"><path d="M86,21.5c-35.62237,0 -64.5,28.87763 -64.5,64.5c0,35.62237 28.87763,64.5 64.5,64.5c35.62237,0 64.5,-28.87763 64.5,-64.5c0,-35.62237 -28.87763,-64.5 -64.5,-64.5z" opacity="0.3"></path><path d="M86,14.33333c-39.5815,0 -71.66667,32.08517 -71.66667,71.66667c0,39.5815 32.08517,71.66667 71.66667,71.66667c39.5815,0 71.66667,-32.08517 71.66667,-71.66667c0,-39.5815 -32.08517,-71.66667 -71.66667,-71.66667zM107.5,121.83333h-21.5l-28.66667,-35.83333l28.66667,-35.83333h21.5l-28.66667,35.83333zM143.33333,86c0,31.66233 -25.671,57.33333 -57.33333,57.33333c-31.66233,0 -57.33333,-25.671 -57.33333,-57.33333c0,-31.66233 25.671,-57.33333 57.33333,-57.33333c31.66233,0 57.33333,25.671 57.33333,57.33333z"></path></g></g></svg>